<svg width="50" height="50" viewBox="0 0 50 50" fill="none" xmlns="http://www.w3.org/2000/svg">
<rect width="50" height="50" rx="10" fill="#EF4444"/>
<path d="M29.416 14.536C29.6293 14.152 29.9387 13.896 30.344 13.768C30.7493 13.64 31.2507 13.576 31.848 13.576C32.4667 13.576 32.9573 13.6293 33.32 13.736C33.704 13.8427 33.9813 13.9707 34.152 14.12C34.344 14.2693 34.4827 14.4933 34.568 14.792C34.696 15.1333 34.76 15.6773 34.76 16.424V34.184C34.76 34.696 34.7387 35.0693 34.696 35.304C34.6747 35.5387 34.5787 35.816 34.408 36.136C34.1093 36.712 33.2773 37 31.912 37C31.08 37 30.504 36.936 30.184 36.808C29.864 36.68 29.5973 36.4773 29.384 36.2C24.584 29.8 21.4267 25.6187 19.912 23.656V34.184C19.912 34.696 19.8907 35.0693 19.848 35.304C19.8267 35.5387 19.7307 35.816 19.56 36.136C19.2613 36.712 18.4293 37 17.064 37C15.7413 37 14.9307 36.712 14.632 36.136C14.4613 35.816 14.3547 35.528 14.312 35.272C14.2907 35.016 14.28 34.6427 14.28 34.152V16.296C14.28 15.4853 14.376 14.8987 14.568 14.536C14.7813 14.152 15.0907 13.896 15.496 13.768C15.9013 13.64 16.424 13.576 17.064 13.576C17.704 13.576 18.2053 13.64 18.568 13.768C18.952 13.8747 19.2187 14.0027 19.368 14.152C19.4533 14.216 19.6987 14.4933 20.104 14.984C24.6053 21.1067 27.6133 25.1493 29.128 27.112V16.296C29.128 15.4853 29.224 14.8987 29.416 14.536Z" fill="white"/>
</svg>
