<svg width="342" height="300" viewBox="0 0 342 300" fill="none" xmlns="http://www.w3.org/2000/svg">
<path d="M21.6654 43.3333H320.332C333.132 43.3333 341.665 34.8 341.665 22C341.665 9.19996 333.132 0.666626 320.332 0.666626H21.6654C8.86536 0.666626 0.332031 9.19996 0.332031 22C0.332031 34.8 8.86536 43.3333 21.6654 43.3333ZM21.6654 171.333H320.332C333.132 171.333 341.665 162.8 341.665 150C341.665 137.2 333.132 128.667 320.332 128.667H21.6654C8.86536 128.667 0.332031 137.2 0.332031 150C0.332031 162.8 8.86536 171.333 21.6654 171.333ZM21.6654 299.333H320.332C333.132 299.333 341.665 290.8 341.665 278C341.665 265.2 333.132 256.667 320.332 256.667H21.6654C8.86536 256.667 0.332031 265.2 0.332031 278C0.332031 290.8 8.86536 299.333 21.6654 299.333Z" fill="white"/>
</svg>
